<?xml version="1.0" encoding="utf-8"?>
<!DOCTYPE svg PUBLIC "-//W3C//DTD SVG 1.1//EN" "http://www.w3.org/Graphics/SVG/1.1/DTD/svg11.dtd" [
	<!ENTITY ns_svg "http://www.w3.org/2000/svg">
	<!ENTITY ns_xlink "http://www.w3.org/1999/xlink">
]>
<svg  version="1.1" id="Layer_6" xmlns="&ns_svg;" xmlns:xlink="&ns_xlink;" width="436.136" height="541.563"
	 viewBox="0 0 436.136 541.563" overflow="visible" enable-background="new 0 0 436.136 541.563" xml:space="preserve">
<g>
	<g id="page-1_2_" transform="translate(0)">
		<g id="cut_2_" transform="translate(116.919,88.575)" inkscape:label="cut" inkscape:groupmode="layer">
			<path id="cut-L_2_" stroke="#FFFFFF" d="M291.711-39.405L291.711-39.405l4.729,0.382l4.502,1.221l4.271,1.983l3.892,2.747
				l3.279,3.356l2.747,3.814l1.981,4.271l1.223,4.578l0.381,4.654v129.764l0,0l-0.381,4.652l-1.223,4.577l-1.981,4.274l-2.747,3.889
				l-3.279,3.281l-3.892,2.747l-4.271,1.982l-4.502,1.222l-4.729,0.381h-62.173l0,0h48.671v39.897l-25.327,7.781l-7.78,7.781
				h-15.563v6.714l0,0v64.843l-4.653,0.457l-4.576,1.221l-4.272,1.983l-3.892,2.671l-3.28,3.355l-2.745,3.891l-1.983,4.271
				l-1.221,4.504l-0.383,4.728l0.383,4.654l1.221,4.577l1.983,4.272l2.745,3.813l3.28,3.357l3.892,2.745l4.272,1.985l4.576,1.22
				l4.653,0.381v64.843l0,0v6.79h15.563l7.78,7.782l25.327,7.78v39.821h-48.671H-27.24l0,0v-6.714h-15.485l-7.782-7.781
				l-25.328-7.781v-39.897h48.595h-62.173l0,0l-4.654-0.382l-4.577-1.22l-4.271-1.983l-3.815-2.745l-3.356-3.28l-2.669-3.893
				l-2.061-4.271l-1.222-4.501l-0.38-4.729V233.547l0,0l0.38-4.652l1.222-4.577l2.061-4.273l2.669-3.813l3.356-3.356l3.815-2.671
				l4.271-2.059l4.577-1.144l4.654-0.458h62.173l0,0h-48.595v-39.822l25.328-7.78l7.782-7.782h15.485v-6.789V-39.405l14.647-48.67
				h227.562l14.569,48.67H291.711"/>
			<path id="cut-L2_2_" stroke="#FFFFFF" d="M-89.414,390.315v-48.594h6.789"/>
			<path id="cut-L3_2_" stroke="#FFFFFF" d="M-89.414,206.543v48.671h6.789"/>
		</g>
		<g id="fold_2_" transform="translate(116.919,88.575)" inkscape:label="fold" inkscape:groupmode="layer">
			<path id="fold-P_0_2_" stroke="#FFFFFF" d="M229.538-39.405V144.37"/>
			<path id="fold-P_1_2_" stroke="#FFFFFF" d="M-27.24,206.543v183.771"/>
			<path id="fold-P_2_2_" stroke="#FFFFFF" d="M284.923-39.405V144.37"/>
			<path id="fold-P_3_2_" stroke="#FFFFFF" d="M229.538,144.37H-27.24"/>
			<path id="fold-P_4_2_" stroke="#FFFFFF" d="M229.538,206.543H-27.24"/>
			<path id="fold-P_5_2_" stroke="#FFFFFF" d="M229.538,390.315H-27.24"/>
			<path id="fold-P_6_2_" stroke="#FFFFFF" d="M229.538-39.405H-27.24"/>
			<path id="fold-P_7_2_" stroke="#FFFFFF" d="M229.538,390.315v62.174"/>
			<path id="fold-P_8_2_" stroke="#FFFFFF" d="M-27.24,144.37v62.173"/>
			<path id="fold-P_9_2_" stroke="#FFFFFF" d="M-27.24,390.315v62.174"/>
			<path id="fold-P_10_2_" stroke="#FFFFFF" d="M229.538,144.37v62.173"/>
			<path id="fold-F18_2_" stroke="#FFFFFF" d="M-82.625,255.214v86.507"/>
		</g>
	</g>
	<g>
		<g>
			<path fill="#FFFFFF" d="M138.411,319.006c0-1.309,0.18-2.514,0.542-3.616c0.362-1.102,0.852-2.038,1.467-2.808
				c0.617-0.771,1.338-1.425,2.161-1.964c0.825-0.539,1.694-0.936,2.61-1.19c0.915-0.255,1.86-0.383,2.833-0.383
				c1.424,0,2.771,0.265,4.037,0.794c1.266,0.529,2.345,1.244,3.235,2.144c0.891,0.9,1.594,1.964,2.11,3.19
				c0.515,1.228,0.772,2.515,0.772,3.862c0,0.884-0.067,1.696-0.202,2.437c-0.135,0.739-0.286,1.304-0.455,1.692
				c-0.168,0.39-0.32,0.792-0.455,1.205c-0.135,0.414-0.202,0.78-0.202,1.098c-1.425,0.097-3.092,0.313-5,0.652l-0.231-1.117
				c0.635-0.202,1.185-0.404,1.647-0.604c0.463-0.202,0.939-0.47,1.43-0.801c0.491-0.332,0.892-0.696,1.2-1.096
				c0.308-0.398,0.562-0.894,0.759-1.484s0.296-1.251,0.296-1.981c0-0.587-0.102-1.166-0.303-1.737
				c-0.202-0.571-0.525-1.124-0.969-1.658c-0.443-0.532-0.983-1-1.618-1.404c-0.635-0.403-1.425-0.729-2.369-0.973
				c-0.944-0.245-1.984-0.368-3.121-0.368c-1.079,0-2.133,0.128-3.163,0.383c-1.03,0.254-1.977,0.623-2.838,1.109
				c-0.863,0.484-1.556,1.123-2.08,1.918c-0.524,0.791-0.787,1.683-0.787,2.673c0,1.24,0.271,2.411,0.815,3.512
				s1.442,2.205,2.694,3.311l-0.708,0.881C139.781,324.612,138.411,322.055,138.411,319.006z"/>
			<path fill="#FFFFFF" d="M144.833,328.723c2.081,0,3.771,0.587,5.068,1.761s1.945,2.811,1.945,4.908
				c0,0.934-0.135,1.779-0.405,2.539c-0.27,0.76-0.627,1.391-1.069,1.89c-0.444,0.501-0.963,0.922-1.555,1.262
				c-0.594,0.342-1.201,0.588-1.823,0.736c-0.622,0.149-1.256,0.225-1.902,0.225c-0.617,0-1.232-0.085-1.844-0.253
				c-0.612-0.169-1.213-0.434-1.801-0.794c-0.587-0.36-1.106-0.796-1.555-1.306c-0.447-0.509-0.807-1.137-1.078-1.883
				c-0.27-0.744-0.404-1.559-0.404-2.444c0-1.04,0.19-1.992,0.571-2.858c0.38-0.866,0.879-1.566,1.497-2.101
				s1.302-0.948,2.054-1.242C143.285,328.869,144.051,328.723,144.833,328.723z M150.634,335.104c0-0.596-0.26-1.112-0.782-1.55
				c-0.52-0.437-1.16-0.752-1.917-0.943c-0.757-0.192-1.575-0.289-2.453-0.289c-0.577,0-1.191,0.072-1.837,0.217
				s-1.273,0.353-1.88,0.627c-0.607,0.273-1.107,0.644-1.498,1.109c-0.391,0.467-0.586,0.987-0.586,1.565
				c0,0.307,0.06,0.597,0.18,0.871c0.121,0.273,0.331,0.551,0.63,0.828c0.298,0.279,0.762,0.502,1.389,0.671
				c0.626,0.168,1.383,0.252,2.271,0.252c2.074,0,3.673-0.303,4.797-0.908C150.072,336.949,150.634,336.132,150.634,335.104z"/>
			<path fill="#FFFFFF" d="M149.994,349.193c1.248,1.613,1.872,3.098,1.872,4.451c0,0.617-0.082,1.148-0.246,1.591
				c-0.165,0.442-0.379,0.795-0.645,1.055c-0.265,0.26-0.612,0.464-1.042,0.607c-0.43,0.145-0.859,0.241-1.288,0.289
				c-0.429,0.048-0.943,0.072-1.541,0.072h-6.125c-0.375,0-0.643,0.107-0.801,0.322c-0.159,0.214-0.306,0.585-0.44,1.11
				l-0.058,0.244c-0.039,0.152-0.131,0.229-0.277,0.229h-0.686l-0.058-0.058c0.039-1.573,0.058-2.743,0.058-3.51l-0.058-3.306
				l0.058-0.057h0.686c0.136,0,0.229,0.077,0.277,0.231l0.029,0.129c0.125,0.509,0.272,0.871,0.44,1.088
				c0.168,0.215,0.445,0.323,0.83,0.323h6.327c1.078,0,1.833-0.079,2.261-0.238s0.642-0.492,0.642-1.001
				c0-0.883-0.467-2.074-1.4-3.573h-7.829c-0.375,0-0.652,0.113-0.83,0.338c-0.178,0.227-0.325,0.584-0.44,1.073l-0.029,0.114
				c-0.039,0.164-0.131,0.246-0.277,0.246h-0.686l-0.058-0.057c0.039-1.501,0.058-2.637,0.058-3.406l-0.058-3.409l0.058-0.058h0.686
				c0.155,0,0.248,0.076,0.277,0.229l0.058,0.259c0.115,0.525,0.255,0.893,0.418,1.103s0.438,0.315,0.823,0.315h7.236
				c0.685,0,1.137-0.051,1.358-0.15c0.221-0.1,0.341-0.266,0.361-0.494l0.115-1.203l1.006-0.058
				c0.303,2.343,0.602,3.995,0.895,4.956c0,0.135-0.029,0.202-0.086,0.202l-1.872-0.058V349.193z"/>
			<path fill="#FFFFFF" d="M143.018,360.776l0.058,1.193c-1.321,0.279-2.239,0.658-2.755,1.139s-0.773,1.258-0.773,2.335
				c0,0.451,0.166,0.854,0.499,1.21c0.332,0.355,0.812,0.533,1.439,0.533c0.607,0,1.074-0.13,1.403-0.39
				c0.317-0.249,0.617-0.768,0.896-1.557c0.116-0.326,0.26-0.658,0.435-0.994c0.173-0.337,0.397-0.694,0.672-1.074
				c0.274-0.379,0.568-0.714,0.882-1.002s0.682-0.528,1.106-0.72c0.424-0.192,0.864-0.289,1.316-0.289
				c1.035,0,1.901,0.438,2.602,1.312c0.7,0.875,1.05,1.976,1.05,3.302c0,0.786-0.065,1.465-0.196,2.031
				c-0.131,0.567-0.343,1.148-0.633,1.743c-1.168,0.154-2.177,0.265-3.026,0.332l-0.145-1.154c0.994-0.289,1.699-0.665,2.119-1.131
				s0.629-1.045,0.629-1.735c0-0.442-0.142-0.828-0.427-1.16c-0.284-0.331-0.701-0.497-1.25-0.497c-0.542,0-0.981,0.125-1.323,0.375
				c-0.343,0.249-0.625,0.667-0.847,1.254c-0.25,0.691-0.512,1.294-0.788,1.81c-0.276,0.515-0.593,0.998-0.954,1.45
				c-0.362,0.453-0.777,0.797-1.244,1.032c-0.468,0.236-0.981,0.354-1.54,0.354c-0.673,0-1.266-0.156-1.775-0.469
				c-0.51-0.313-0.907-0.727-1.191-1.24c-0.284-0.515-0.496-1.062-0.635-1.638c-0.14-0.577-0.209-1.169-0.209-1.775
				c0-0.441,0.06-1.121,0.179-2.038c0.12-0.918,0.176-1.646,0.166-2.185C139.844,361.133,141.265,361.014,143.018,360.776z"/>
			<path fill="#FFFFFF" d="M149.999,377.307c0.569,0.489,1.022,1.052,1.36,1.685c0.338,0.633,0.507,1.262,0.507,1.886
				c0,1.027-0.296,1.937-0.889,2.724s-1.348,1.376-2.263,1.766c-0.916,0.389-1.908,0.583-2.978,0.583
				c-2.238,0-4.113-0.754-5.628-2.262c-1.119-1.114-1.678-2.578-1.678-4.394c0-0.7,0.165-1.363,0.495-1.987h-4.73
				c-0.383,0-0.666,0.11-0.848,0.331c-0.182,0.221-0.336,0.586-0.459,1.095l-0.058,0.229c-0.048,0.154-0.125,0.231-0.232,0.231
				h-0.711l-0.058-0.029c0.039-1.587,0.058-2.765,0.058-3.534l-0.058-3.424l0.058-0.059h0.711c0.126,0,0.203,0.077,0.232,0.229
				l0.058,0.273c0.114,0.517,0.263,0.878,0.446,1.089c0.183,0.209,0.472,0.315,0.865,0.315h14.027c0.682,0,1.134-0.051,1.355-0.15
				c0.222-0.1,0.342-0.266,0.361-0.494l0.116-1.203l1.02-0.059c0.296,2.344,0.588,3.996,0.876,4.957
				c0,0.135-0.029,0.202-0.086,0.202l-1.867-0.058V377.307z M148.814,377.307h-8.164c-0.646,0.595-0.968,1.194-0.968,1.8
				c0,0.613,0.154,1.151,0.462,1.612s0.723,0.82,1.243,1.08c0.521,0.259,1.079,0.45,1.676,0.575
				c0.598,0.125,1.225,0.188,1.879,0.188c1.742,0,3.075-0.222,3.999-0.662c0.924-0.442,1.386-1.095,1.386-1.958
				c0-0.364-0.137-0.792-0.41-1.281C149.642,378.171,149.275,377.72,148.814,377.307z"/>
			<path fill="#FFFFFF" d="M148.22,393.23h-7.228c-0.385,0-0.67,0.109-0.853,0.329c-0.183,0.22-0.322,0.568-0.418,1.046
				l-0.058,0.302c-0.039,0.151-0.131,0.229-0.277,0.229H138.7l-0.058-0.058c0.039-1.593,0.058-2.771,0.058-3.539l-0.058-3.448
				l0.058-0.058h0.686c0.165,0,0.258,0.067,0.277,0.202l0.058,0.359c0.086,0.48,0.221,0.83,0.404,1.051
				c0.183,0.221,0.473,0.332,0.869,0.332h7.214c0.481,0,0.856-0.026,1.127-0.08c0.27-0.053,0.454-0.122,0.55-0.209
				s0.149-0.207,0.159-0.361l0.13-1.212l0.885-0.058c0.34,2.591,0.629,4.276,0.866,5.058c0,0.135-0.025,0.202-0.077,0.202
				C150.412,393.259,149.203,393.23,148.22,393.23z M154.342,390.317c0.343-0.342,0.76-0.512,1.251-0.512
				c0.491,0,0.911,0.17,1.257,0.512c0.348,0.342,0.521,0.758,0.521,1.25c0,0.491-0.173,0.911-0.521,1.258
				c-0.346,0.346-0.766,0.52-1.257,0.52c-0.491,0-0.908-0.174-1.251-0.52c-0.341-0.347-0.512-0.767-0.512-1.258
				C153.83,391.075,154,390.659,154.342,390.317z"/>
			<path fill="#FFFFFF" d="M149.999,401.561c1.244,1.203,1.867,2.464,1.867,3.782c0,0.5-0.171,0.912-0.513,1.234
				c-0.34,0.322-0.717,0.483-1.131,0.483c-0.481,0-0.882-0.142-1.204-0.426c-0.321-0.284-0.482-0.638-0.482-1.062
				c0-0.26,0.063-0.51,0.187-0.75c0.124-0.241,0.257-0.431,0.4-0.57s0.277-0.286,0.401-0.44c0.124-0.154,0.186-0.289,0.186-0.404
				c0-0.337-0.13-0.698-0.39-1.083c-0.367-0.51-1.055-0.765-2.067-0.765h-6.243c-0.386,0-0.663,0.108-0.831,0.323
				c-0.168,0.217-0.315,0.579-0.44,1.088l-0.058,0.244c-0.039,0.154-0.131,0.23-0.277,0.23h-0.686l-0.058-0.058
				c0.039-1.577,0.058-2.75,0.058-3.52l-0.058-3.41l0.058-0.058h0.686c0.146,0,0.238,0.067,0.277,0.201l0.058,0.286
				c0.106,0.507,0.25,0.87,0.433,1.089c0.183,0.219,0.463,0.33,0.838,0.33h7.211c0.683,0,1.137-0.051,1.358-0.15
				c0.222-0.101,0.342-0.267,0.361-0.495l0.116-1.203l1.02-0.058c0.296,2.344,0.588,3.995,0.876,4.957
				c0,0.135-0.029,0.202-0.086,0.202l-1.867-0.058V401.561z"/>
			<path fill="#FFFFFF" d="M140.115,415.583c-1.136-1.294-1.704-2.522-1.704-3.683c0-1.25,0.255-2.149,0.765-2.702
				c0.51-0.552,1.291-0.828,2.341-0.828c0.57,0,1.072,0.117,1.506,0.354c0.436,0.234,0.814,0.599,1.138,1.095
				c0.324,0.494,0.597,1.018,0.819,1.571c0.223,0.551,0.458,1.256,0.711,2.109l0.621,2.128c0.73,0,1.363-0.034,1.896-0.102
				c0.534-0.067,0.959-0.156,1.277-0.266c0.317-0.111,0.569-0.257,0.756-0.439c0.188-0.182,0.313-0.372,0.375-0.567
				c0.063-0.197,0.094-0.43,0.094-0.698c0-0.585-0.091-1.079-0.273-1.482c-0.182-0.402-0.432-0.604-0.747-0.604
				c-0.212,0-0.451,0.029-0.719,0.087c-0.269,0.058-0.45,0.086-0.546,0.086c-0.23,0-0.474-0.158-0.734-0.477
				c-0.257-0.315-0.387-0.666-0.387-1.051c0-0.511,0.105-0.87,0.317-1.08c0.212-0.212,0.519-0.318,0.923-0.318
				c0.557,0,1.098,0.288,1.623,0.864c0.523,0.576,0.934,1.27,1.232,2.081c0.298,0.811,0.447,1.581,0.447,2.312
				c0,0.672-0.07,1.271-0.209,1.796c-0.141,0.524-0.388,1.029-0.739,1.516c-0.353,0.486-0.881,0.864-1.586,1.134
				s-1.568,0.404-2.591,0.404h-4.293c-0.338,0-0.601,0.004-0.788,0.014c-0.188,0.01-0.408,0.034-0.658,0.072
				c-0.25,0.039-0.441,0.099-0.571,0.181s-0.241,0.2-0.332,0.354c-0.092,0.154-0.137,0.342-0.137,0.563
				c0,0.163,0.024,0.303,0.071,0.418c0.048,0.116,0.1,0.198,0.158,0.246l0.171,0.13c0.048,0.038,0.072,0.077,0.072,0.115
				c0,0.058-0.075,0.138-0.224,0.238c-0.148,0.102-0.271,0.151-0.367,0.151c-0.067,0-0.208-0.11-0.425-0.332
				c-0.216-0.221-0.434-0.558-0.656-1.011c-0.22-0.452-0.331-0.924-0.331-1.414c0-0.869,0.137-1.521,0.411-1.96
				c0.274-0.439,0.705-0.75,1.292-0.933V415.583z M141.219,415.627h3.995l-0.504-1.684c-0.29-0.969-0.648-1.625-1.076-1.972
				c-0.437-0.335-0.994-0.503-1.672-0.503c-1.289,0-1.934,0.618-1.934,1.856c0,0.249,0.118,0.597,0.356,1.043
				C140.621,414.813,140.899,415.233,141.219,415.627z"/>
			<path fill="#FFFFFF" d="M149.994,427.513c1.248,1.613,1.872,3.098,1.872,4.451c0,0.617-0.082,1.147-0.246,1.591
				c-0.165,0.442-0.379,0.795-0.645,1.055c-0.265,0.26-0.612,0.464-1.042,0.607c-0.43,0.145-0.859,0.241-1.288,0.289
				c-0.429,0.048-0.943,0.072-1.541,0.072h-6.125c-0.375,0-0.643,0.107-0.801,0.322c-0.159,0.214-0.306,0.585-0.44,1.11
				l-0.058,0.244c-0.039,0.151-0.131,0.229-0.277,0.229h-0.686l-0.058-0.058c0.039-1.573,0.058-2.743,0.058-3.511l-0.058-3.305
				l0.058-0.057h0.686c0.136,0,0.229,0.077,0.277,0.231l0.029,0.129c0.125,0.509,0.272,0.871,0.44,1.087
				c0.168,0.216,0.445,0.324,0.83,0.324h6.327c1.078,0,1.833-0.08,2.261-0.238c0.428-0.159,0.642-0.492,0.642-1.001
				c0-0.883-0.467-2.074-1.4-3.573h-7.829c-0.375,0-0.652,0.113-0.83,0.338c-0.178,0.227-0.325,0.584-0.44,1.073l-0.029,0.114
				c-0.039,0.164-0.131,0.245-0.277,0.245h-0.686l-0.058-0.056c0.039-1.501,0.058-2.637,0.058-3.406l-0.058-3.409l0.058-0.058h0.686
				c0.155,0,0.248,0.076,0.277,0.229l0.058,0.258c0.115,0.526,0.255,0.894,0.418,1.104c0.164,0.209,0.438,0.315,0.823,0.315h7.236
				c0.685,0,1.137-0.051,1.358-0.15c0.221-0.1,0.341-0.266,0.361-0.494l0.115-1.203l1.006-0.058
				c0.303,2.343,0.602,3.995,0.895,4.956c0,0.135-0.029,0.202-0.086,0.202l-1.872-0.058V427.513z"/>
			<path fill="#FFFFFF" d="M144.833,439.019c2.081,0,3.771,0.587,5.068,1.762c1.297,1.174,1.945,2.811,1.945,4.908
				c0,0.934-0.135,1.779-0.405,2.538c-0.27,0.761-0.627,1.392-1.069,1.891c-0.444,0.5-0.963,0.921-1.555,1.262
				c-0.594,0.342-1.201,0.587-1.823,0.736c-0.622,0.149-1.256,0.224-1.902,0.224c-0.617,0-1.232-0.084-1.844-0.252
				c-0.612-0.169-1.213-0.434-1.801-0.795c-0.587-0.359-1.106-0.795-1.555-1.305c-0.447-0.509-0.807-1.137-1.078-1.883
				c-0.27-0.745-0.404-1.56-0.404-2.444c0-1.04,0.19-1.993,0.571-2.859c0.38-0.866,0.879-1.566,1.497-2.101
				c0.617-0.533,1.302-0.947,2.054-1.241C143.285,439.166,144.051,439.019,144.833,439.019z M150.634,445.399
				c0-0.595-0.26-1.111-0.782-1.549c-0.52-0.438-1.16-0.752-1.917-0.943c-0.757-0.192-1.575-0.289-2.453-0.289
				c-0.577,0-1.191,0.072-1.837,0.217s-1.273,0.353-1.88,0.627c-0.607,0.272-1.107,0.644-1.498,1.109
				c-0.391,0.467-0.586,0.987-0.586,1.564c0,0.308,0.06,0.597,0.18,0.871c0.121,0.274,0.331,0.552,0.63,0.829
				c0.298,0.279,0.762,0.502,1.389,0.67c0.626,0.169,1.383,0.253,2.271,0.253c2.074,0,3.673-0.303,4.797-0.908
				S150.634,446.429,150.634,445.399z"/>
			<path fill="#FFFFFF" d="M148.22,459.567h-7.228c-0.385,0-0.67,0.109-0.853,0.329c-0.183,0.219-0.322,0.568-0.418,1.046
				l-0.058,0.302c-0.039,0.151-0.131,0.229-0.277,0.229H138.7l-0.058-0.058c0.039-1.593,0.058-2.771,0.058-3.539l-0.058-3.448
				l0.058-0.058h0.686c0.165,0,0.258,0.067,0.277,0.202l0.058,0.359c0.086,0.48,0.221,0.83,0.404,1.051
				c0.183,0.221,0.473,0.332,0.869,0.332h7.214c0.481,0,0.856-0.027,1.127-0.08c0.27-0.053,0.454-0.122,0.55-0.209
				s0.149-0.207,0.159-0.361l0.13-1.212l0.885-0.059c0.34,2.592,0.629,4.277,0.866,5.058c0,0.135-0.025,0.202-0.077,0.202
				C150.412,459.596,149.203,459.567,148.22,459.567z M154.342,456.654c0.343-0.342,0.76-0.513,1.251-0.513
				c0.491,0,0.911,0.171,1.257,0.513c0.348,0.342,0.521,0.758,0.521,1.25c0,0.491-0.173,0.911-0.521,1.258
				c-0.346,0.346-0.766,0.52-1.257,0.52c-0.491,0-0.908-0.174-1.251-0.52c-0.341-0.347-0.512-0.767-0.512-1.258
				C153.83,457.412,154,456.996,154.342,456.654z"/>
			<path fill="#FFFFFF" d="M140.115,470.067c-1.136-1.295-1.704-2.522-1.704-3.683c0-1.25,0.255-2.149,0.765-2.702
				c0.51-0.552,1.291-0.829,2.341-0.829c0.57,0,1.072,0.118,1.506,0.354c0.436,0.234,0.814,0.599,1.138,1.095
				c0.324,0.494,0.597,1.018,0.819,1.57c0.223,0.552,0.458,1.257,0.711,2.11l0.621,2.127c0.73,0,1.363-0.033,1.896-0.101
				c0.534-0.067,0.959-0.156,1.277-0.266c0.317-0.111,0.569-0.257,0.756-0.439c0.188-0.182,0.313-0.372,0.375-0.568
				c0.063-0.197,0.094-0.429,0.094-0.697c0-0.585-0.091-1.079-0.273-1.482c-0.182-0.402-0.432-0.604-0.747-0.604
				c-0.212,0-0.451,0.028-0.719,0.086c-0.269,0.059-0.45,0.087-0.546,0.087c-0.23,0-0.474-0.158-0.734-0.477
				c-0.257-0.316-0.387-0.666-0.387-1.051c0-0.511,0.105-0.87,0.317-1.081s0.519-0.317,0.923-0.317c0.557,0,1.098,0.288,1.623,0.864
				c0.523,0.576,0.934,1.269,1.232,2.081c0.298,0.811,0.447,1.581,0.447,2.311c0,0.673-0.07,1.272-0.209,1.797
				c-0.141,0.524-0.388,1.029-0.739,1.516c-0.353,0.486-0.881,0.863-1.586,1.133s-1.568,0.404-2.591,0.404h-4.293
				c-0.338,0-0.601,0.005-0.788,0.015c-0.188,0.01-0.408,0.034-0.658,0.072c-0.25,0.038-0.441,0.099-0.571,0.181
				s-0.241,0.199-0.332,0.354c-0.092,0.154-0.137,0.342-0.137,0.563c0,0.163,0.024,0.303,0.071,0.418
				c0.048,0.116,0.1,0.197,0.158,0.246l0.171,0.13c0.048,0.038,0.072,0.076,0.072,0.115c0,0.058-0.075,0.137-0.224,0.238
				c-0.148,0.101-0.271,0.151-0.367,0.151c-0.067,0-0.208-0.11-0.425-0.332c-0.216-0.222-0.434-0.559-0.656-1.011
				c-0.22-0.452-0.331-0.924-0.331-1.415c0-0.868,0.137-1.521,0.411-1.959c0.274-0.439,0.705-0.75,1.292-0.933V470.067z
				 M141.219,470.11h3.995l-0.504-1.683c-0.29-0.969-0.648-1.625-1.076-1.972c-0.437-0.335-0.994-0.503-1.672-0.503
				c-1.289,0-1.934,0.618-1.934,1.856c0,0.249,0.118,0.597,0.356,1.043C140.621,469.298,140.899,469.718,141.219,470.11z"/>
			<path fill="#8D8C8C" d="M114.168,396.961c-0.021,0.245-0.137,0.4-0.346,0.466c-1.283-0.994-1.924-2.251-1.924-3.771
				c0-1.449,0.473-2.577,1.418-3.385c0.793-0.692,1.886-1.038,3.279-1.038c0.651,0,1.261,0.092,1.833,0.275
				c0.57,0.185,1.059,0.428,1.464,0.73c0.404,0.302,0.754,0.647,1.052,1.032c0.296,0.386,0.515,0.783,0.656,1.189
				c0.141,0.407,0.211,0.807,0.211,1.195c0,2.492-1.288,3.739-3.864,3.739c-0.25,0-0.375-0.138-0.375-0.411l0.043-5.884
				c-1.25,0-2.265,0.233-3.046,0.701c-0.534,0.322-0.934,0.699-1.197,1.126c-0.263,0.429-0.396,0.858-0.396,1.289
				c0,0.619,0.089,1.126,0.266,1.518C113.418,396.127,113.727,396.536,114.168,396.961z M118.366,391.165l0.065,4
				c0,0.215,0.102,0.323,0.306,0.323c0.442,0,0.826-0.054,1.15-0.162c0.322-0.107,0.567-0.255,0.73-0.441s0.281-0.382,0.354-0.583
				c0.073-0.2,0.109-0.417,0.109-0.646c0-0.144-0.013-0.285-0.039-0.426c-0.025-0.14-0.091-0.324-0.196-0.55
				c-0.104-0.227-0.249-0.431-0.431-0.615c-0.182-0.183-0.45-0.359-0.806-0.528C119.252,391.368,118.837,391.243,118.366,391.165z"
				/>
			<path fill="#8D8C8C" d="M114.828,400.43h9.688c0.296,0,0.542-0.005,0.736-0.017c0.195-0.01,0.361-0.041,0.498-0.092
				s0.241-0.097,0.308-0.135c0.07-0.041,0.123-0.12,0.164-0.238c0.039-0.12,0.065-0.223,0.075-0.31
				c0.012-0.086,0.021-0.23,0.027-0.433c0.007-0.087,0.011-0.155,0.011-0.206c0.065-0.064,0.166-0.108,0.306-0.13
				s0.255-0.021,0.349,0c0.036,0.447,0.117,1.01,0.245,1.687c0.128,0.677,0.246,1.153,0.352,1.429c0,0.195-0.075,0.293-0.224,0.293
				c-0.592-0.064-1.367-0.098-2.326-0.098h-10.211c-0.476,0-0.839,0.016-1.086,0.049c-0.249,0.031-0.445,0.115-0.59,0.25
				c-0.144,0.135-0.233,0.289-0.265,0.46c-0.034,0.169-0.06,0.443-0.082,0.82c-0.065,0.063-0.188,0.096-0.366,0.096
				s-0.301-0.032-0.366-0.096c0.029-1.261,0.043-2.077,0.043-2.45c0-0.407-0.015-1.227-0.043-2.459
				c0.065-0.063,0.188-0.096,0.366-0.096s0.301,0.031,0.366,0.096c0.021,0.377,0.048,0.65,0.082,0.821
				c0.031,0.171,0.121,0.323,0.265,0.459c0.145,0.135,0.341,0.219,0.59,0.25C113.988,400.413,114.351,400.43,114.828,400.43z"/>
			<path fill="#8D8C8C" d="M119.133,412.205c0.332,0,0.584-0.017,0.758-0.048c0.173-0.034,0.315-0.108,0.427-0.229
				c0.112-0.118,0.185-0.261,0.221-0.422c0.036-0.163,0.068-0.41,0.098-0.742c0.072-0.021,0.178-0.039,0.317-0.054
				c0.138-0.015,0.244-0.011,0.318,0.011c0.18,1.421,0.392,2.435,0.637,3.04c0,0.182-0.05,0.273-0.15,0.273
				c-0.955-0.052-1.801-0.078-2.54-0.078h-4.672c-1.357,0-2.488-0.069-3.396-0.206c-0.904-0.137-1.596-0.321-2.073-0.553
				c-0.476-0.23-0.862-0.529-1.158-0.897c-0.505-0.605-0.758-1.422-0.758-2.446c0-0.26,0.087-0.527,0.259-0.802
				c0.173-0.274,0.403-0.411,0.69-0.411c0.187,0,0.375,0.083,0.561,0.249c0.187,0.166,0.281,0.317,0.281,0.455
				c0,0.079-0.011,0.156-0.032,0.231c-0.021,0.076-0.043,0.14-0.065,0.19c-0.02,0.051-0.055,0.108-0.105,0.173
				c-0.049,0.065-0.089,0.109-0.118,0.135c-0.028,0.025-0.073,0.067-0.137,0.125l-0.107,0.119c-0.163,0.166-0.244,0.397-0.244,0.693
				c0,0.181,0.068,0.337,0.206,0.471c0.137,0.133,0.344,0.244,0.622,0.331c0.278,0.086,0.575,0.156,0.893,0.21
				c0.316,0.055,0.712,0.094,1.184,0.12c0.471,0.025,0.908,0.042,1.309,0.05c0.399,0.007,0.881,0.011,1.444,0.011H119.133z
				 M125.392,411.897c0.26,0,0.5,0.125,0.724,0.375c0.223,0.249,0.334,0.508,0.334,0.775c0,0.287-0.123,0.534-0.367,0.746
				c-0.246,0.211-0.504,0.316-0.779,0.316c-0.244,0-0.483-0.117-0.717-0.354c-0.235-0.237-0.351-0.502-0.351-0.795
				c0-0.269,0.12-0.513,0.361-0.732C124.839,412.008,125.104,411.897,125.392,411.897z"/>
			<path fill="#8D8C8C" d="M111.898,420.535c0-0.426,0.057-0.805,0.168-1.137c0.113-0.332,0.264-0.604,0.452-0.817
				c0.188-0.213,0.415-0.388,0.68-0.524c0.265-0.137,0.539-0.234,0.821-0.292s0.585-0.087,0.904-0.087h4.248
				c0.699,0,1.158-0.092,1.378-0.274c0.219-0.183,0.352-0.547,0.395-1.091c0.065-0.065,0.187-0.098,0.366-0.098
				s0.301,0.032,0.366,0.098c-0.029,1.091-0.043,1.843-0.043,2.252c0,0.375,0.014,0.634,0.043,0.778
				c0,0.115-0.047,0.173-0.139,0.173c-1.083-0.058-1.846-0.086-2.286-0.086h-4.028c-0.463,0-0.856,0.059-1.181,0.179
				c-0.325,0.118-0.561,0.275-0.71,0.472c-0.147,0.195-0.25,0.383-0.308,0.563c-0.058,0.18-0.086,0.368-0.086,0.563
				c0,0.563,0.354,1.258,1.062,2.081c0.13,0.152,0.25,0.249,0.362,0.293c0.112,0.043,0.28,0.064,0.504,0.064h4.281
				c0.714,0,1.185-0.09,1.409-0.268c0.224-0.181,0.354-0.547,0.39-1.098c0.065-0.064,0.187-0.098,0.366-0.098
				s0.301,0.029,0.366,0.087c-0.029,1.098-0.043,1.852-0.043,2.263c0,0.376,0.014,0.635,0.043,0.778
				c0,0.116-0.047,0.174-0.139,0.174c-1.081-0.058-1.841-0.087-2.281-0.087h-4.247c-0.577,0-0.976,0.1-1.2,0.297
				c-0.223,0.2-0.36,0.638-0.41,1.316c-0.067,0.065-0.172,0.098-0.313,0.098c-0.141,0-0.242-0.032-0.303-0.098
				c-0.138-1.241-0.433-2.132-0.885-2.673c-0.05-0.152-0.05-0.291,0-0.421c0.524-0.166,0.96-0.249,1.31-0.249
				c0.052,0,0.085-0.015,0.101-0.044c0.016-0.028,0.016-0.063,0-0.104c-0.016-0.039-0.037-0.077-0.067-0.113
				C112.346,422.294,111.898,421.336,111.898,420.535z"/>
			<path fill="#8D8C8C" d="M114.168,435.93c-0.021,0.245-0.137,0.4-0.346,0.465c-1.283-0.994-1.924-2.251-1.924-3.771
				c0-1.448,0.473-2.577,1.418-3.384c0.793-0.691,1.886-1.038,3.279-1.038c0.651,0,1.261,0.091,1.833,0.275
				c0.57,0.184,1.059,0.427,1.464,0.73c0.404,0.303,0.754,0.646,1.052,1.032c0.296,0.386,0.515,0.781,0.656,1.189
				c0.141,0.408,0.211,0.806,0.211,1.194c0,2.493-1.288,3.739-3.864,3.739c-0.25,0-0.375-0.137-0.375-0.41l0.043-5.884
				c-1.25,0-2.265,0.233-3.046,0.7c-0.534,0.324-0.934,0.7-1.197,1.127c-0.263,0.429-0.396,0.857-0.396,1.288
				c0,0.62,0.089,1.126,0.266,1.519C113.418,435.096,113.727,435.504,114.168,435.93z M118.366,430.133l0.065,4
				c0,0.216,0.102,0.324,0.306,0.324c0.442,0,0.826-0.055,1.15-0.161c0.322-0.108,0.567-0.257,0.73-0.443
				c0.164-0.188,0.281-0.381,0.354-0.582c0.073-0.201,0.109-0.416,0.109-0.647c0-0.143-0.013-0.285-0.039-0.426
				c-0.025-0.14-0.091-0.323-0.196-0.55c-0.104-0.226-0.249-0.431-0.431-0.614s-0.45-0.358-0.806-0.528
				S118.837,430.212,118.366,430.133z"/>
			<path fill="#8D8C8C" d="M120.714,447.12c0-0.116,0.041-0.238,0.123-0.365c0.083-0.128,0.17-0.213,0.263-0.257
				c0.179-0.124,0.269-0.272,0.269-0.447c0-0.136-0.061-0.299-0.178-0.486c-0.119-0.187-0.236-0.319-0.351-0.399
				c-0.349,0.331-0.697,0.573-1.044,0.724c-0.348,0.151-0.772,0.227-1.271,0.227c-1.041,0-1.866-0.365-2.476-1.096
				s-0.916-1.609-0.916-2.64c0-0.814,0.153-1.484,0.459-2.01c-0.375-0.275-0.805-0.414-1.289-0.414
				c-0.433,0-0.752,0.144-0.958,0.432c-0.205,0.286-0.308,0.621-0.308,0.999c0,0.028,0.002,0.072,0.005,0.13
				c0.005,0.058,0.009,0.138,0.017,0.243c0.007,0.104,0.015,0.199,0.022,0.286c0.072,0.589,0.108,1.086,0.108,1.489
				c0,1.576-0.242,2.656-0.724,3.241c-0.54,0.649-1.138,0.976-1.795,0.976c-0.578,0-1.112-0.185-1.603-0.553
				s-0.896-0.849-1.217-1.444s-0.57-1.262-0.749-1.997c-0.176-0.736-0.265-1.483-0.265-2.241c0-0.455,0.043-0.882,0.13-1.279
				c0.087-0.398,0.222-0.77,0.406-1.117c0.184-0.347,0.446-0.621,0.785-0.824c0.339-0.202,0.739-0.304,1.201-0.304
				c0.491,0,0.976,0.155,1.452,0.464c0.478,0.311,0.889,0.755,1.236,1.338c0.151-0.301,0.379-0.547,0.681-0.731
				c0.303-0.188,0.645-0.28,1.027-0.28c0.396,0,0.801,0.087,1.215,0.263c0.415,0.176,0.752,0.412,1.011,0.705
				c0.354-0.365,0.722-0.647,1.102-0.846c0.38-0.197,0.845-0.296,1.395-0.296c0.658,0,1.248,0.18,1.769,0.537
				c0.521,0.356,0.919,0.823,1.193,1.397c0.275,0.574,0.413,1.194,0.413,1.858c0,0.894-0.203,1.659-0.61,2.3
				c0.348,0.267,0.623,0.622,0.825,1.062c0.204,0.44,0.305,0.828,0.305,1.16c0,0.297-0.077,0.541-0.233,0.732
				c-0.154,0.191-0.352,0.288-0.59,0.288c-0.216,0-0.409-0.086-0.579-0.255C120.798,447.519,120.714,447.329,120.714,447.12z
				 M111.895,440.202c-0.355-0.292-0.68-0.479-0.976-0.563c-0.296-0.084-0.668-0.126-1.116-0.126c-0.355,0-0.676,0.1-0.965,0.298
				c-0.29,0.2-0.517,0.446-0.684,0.74c-0.166,0.292-0.293,0.584-0.38,0.873c-0.086,0.29-0.13,0.544-0.13,0.761
				c0,0.692,0.09,1.36,0.271,2.005c0.182,0.646,0.463,1.195,0.846,1.648c0.384,0.454,0.828,0.681,1.334,0.681
				c0.29,0,0.529-0.079,0.721-0.238c0.192-0.157,0.41-0.453,0.657-0.886c0.159-0.288,0.26-0.633,0.303-1.037
				c0.043-0.404,0.065-0.952,0.065-1.644c0-0.072-0.011-0.295-0.033-0.669c-0.021-0.374-0.032-0.69-0.032-0.95
				C111.775,440.806,111.815,440.507,111.895,440.202z M118.294,444.345c0.928,0,1.64-0.184,2.137-0.551
				c0.497-0.367,0.745-0.896,0.745-1.587c0-1.179-0.79-1.77-2.37-1.77c-0.333,0-0.624,0.011-0.87,0.032s-0.511,0.073-0.792,0.156
				c-0.284,0.083-0.515,0.195-0.697,0.335s-0.333,0.339-0.456,0.599c-0.124,0.26-0.185,0.569-0.185,0.929
				c0,0.229,0.034,0.444,0.104,0.643c0.068,0.197,0.188,0.394,0.358,0.587c0.171,0.195,0.428,0.348,0.772,0.46
				C117.384,444.288,117.803,444.345,118.294,444.345z"/>
			<path fill="#8D8C8C" d="M116.662,448.937c0.953,0,1.818,0.181,2.594,0.542c0.776,0.36,1.403,0.902,1.879,1.624
				c0.476,0.722,0.714,1.566,0.714,2.533c0,0.664-0.099,1.264-0.297,1.798c-0.199,0.534-0.462,0.977-0.791,1.325
				c-0.327,0.352-0.712,0.643-1.151,0.879c-0.44,0.233-0.888,0.401-1.341,0.503c-0.455,0.101-0.924,0.151-1.407,0.151
				c-0.456,0-0.911-0.056-1.365-0.169c-0.456-0.11-0.902-0.291-1.339-0.541c-0.438-0.248-0.823-0.55-1.155-0.903
				c-0.333-0.354-0.6-0.798-0.802-1.332s-0.303-1.119-0.303-1.754c0-0.751,0.141-1.432,0.422-2.04
				c0.281-0.611,0.653-1.1,1.115-1.468s0.97-0.652,1.522-0.85C115.51,449.035,116.078,448.937,116.662,448.937z M121.118,453.397
				c0-0.592-0.2-1.086-0.602-1.483c-0.399-0.396-0.885-0.675-1.456-0.833c-0.57-0.159-1.198-0.238-1.884-0.238
				c-0.361,0-0.739,0.033-1.131,0.104c-0.395,0.067-0.797,0.183-1.208,0.346c-0.412,0.162-0.78,0.361-1.104,0.595
				c-0.325,0.235-0.589,0.534-0.796,0.899c-0.205,0.364-0.308,0.767-0.308,1.207c0,0.231,0.026,0.449,0.082,0.656
				c0.053,0.204,0.16,0.416,0.319,0.633c0.159,0.216,0.364,0.403,0.617,0.563c0.252,0.159,0.594,0.289,1.022,0.39
				c0.431,0.102,0.926,0.151,1.489,0.151c1.617,0,2.848-0.257,3.692-0.774C120.696,455.097,121.118,454.357,121.118,453.397z"/>
		</g>
		<path fill="#FFFFFF" d="M138.411,319.006c0-1.309,0.18-2.514,0.542-3.616c0.362-1.102,0.852-2.038,1.467-2.808
			c0.617-0.771,1.338-1.425,2.161-1.964c0.825-0.539,1.694-0.936,2.61-1.19c0.915-0.255,1.86-0.383,2.833-0.383
			c1.424,0,2.771,0.265,4.037,0.794c1.266,0.529,2.345,1.244,3.235,2.144c0.891,0.9,1.594,1.964,2.11,3.19
			c0.515,1.228,0.772,2.515,0.772,3.862c0,0.884-0.067,1.696-0.202,2.437c-0.135,0.739-0.286,1.304-0.455,1.692
			c-0.168,0.39-0.32,0.792-0.455,1.205c-0.135,0.414-0.202,0.78-0.202,1.098c-1.425,0.097-3.092,0.313-5,0.652l-0.231-1.117
			c0.635-0.202,1.185-0.404,1.647-0.604c0.463-0.202,0.939-0.47,1.43-0.801c0.491-0.332,0.892-0.696,1.2-1.096
			c0.308-0.398,0.562-0.894,0.759-1.484s0.296-1.251,0.296-1.981c0-0.587-0.102-1.166-0.303-1.737
			c-0.202-0.571-0.525-1.124-0.969-1.658c-0.443-0.532-0.983-1-1.618-1.404c-0.635-0.403-1.425-0.729-2.369-0.973
			c-0.944-0.245-1.984-0.368-3.121-0.368c-1.079,0-2.133,0.128-3.163,0.383c-1.03,0.254-1.977,0.623-2.838,1.109
			c-0.863,0.484-1.556,1.123-2.08,1.918c-0.524,0.791-0.787,1.683-0.787,2.673c0,1.24,0.271,2.411,0.815,3.512
			s1.442,2.205,2.694,3.311l-0.708,0.881C139.781,324.612,138.411,322.055,138.411,319.006z"/>
		<path fill="#FFFFFF" d="M144.833,328.723c2.081,0,3.771,0.587,5.068,1.761s1.945,2.811,1.945,4.908
			c0,0.934-0.135,1.779-0.405,2.539c-0.27,0.76-0.627,1.391-1.069,1.89c-0.444,0.501-0.963,0.922-1.555,1.262
			c-0.594,0.342-1.201,0.588-1.823,0.736c-0.622,0.149-1.256,0.225-1.902,0.225c-0.617,0-1.232-0.085-1.844-0.253
			c-0.612-0.169-1.213-0.434-1.801-0.794c-0.587-0.36-1.106-0.796-1.555-1.306c-0.447-0.509-0.807-1.137-1.078-1.883
			c-0.27-0.744-0.404-1.559-0.404-2.444c0-1.04,0.19-1.992,0.571-2.858c0.38-0.866,0.879-1.566,1.497-2.101s1.302-0.948,2.054-1.242
			C143.285,328.869,144.051,328.723,144.833,328.723z M150.634,335.104c0-0.596-0.26-1.112-0.782-1.55
			c-0.52-0.437-1.16-0.752-1.917-0.943c-0.757-0.192-1.575-0.289-2.453-0.289c-0.577,0-1.191,0.072-1.837,0.217
			s-1.273,0.353-1.88,0.627c-0.607,0.273-1.107,0.644-1.498,1.109c-0.391,0.467-0.586,0.987-0.586,1.565
			c0,0.307,0.06,0.597,0.18,0.871c0.121,0.273,0.331,0.551,0.63,0.828c0.298,0.279,0.762,0.502,1.389,0.671
			c0.626,0.168,1.383,0.252,2.271,0.252c2.074,0,3.673-0.303,4.797-0.908C150.072,336.949,150.634,336.132,150.634,335.104z"/>
		<path fill="#FFFFFF" d="M149.994,349.193c1.248,1.613,1.872,3.098,1.872,4.451c0,0.617-0.082,1.148-0.246,1.591
			c-0.165,0.442-0.379,0.795-0.645,1.055c-0.265,0.26-0.612,0.464-1.042,0.607c-0.43,0.145-0.859,0.241-1.288,0.289
			c-0.429,0.048-0.943,0.072-1.541,0.072h-6.125c-0.375,0-0.643,0.107-0.801,0.322c-0.159,0.214-0.306,0.585-0.44,1.11l-0.058,0.244
			c-0.039,0.152-0.131,0.229-0.277,0.229h-0.686l-0.058-0.058c0.039-1.573,0.058-2.743,0.058-3.51l-0.058-3.306l0.058-0.057h0.686
			c0.136,0,0.229,0.077,0.277,0.231l0.029,0.129c0.125,0.509,0.272,0.871,0.44,1.088c0.168,0.215,0.445,0.323,0.83,0.323h6.327
			c1.078,0,1.833-0.079,2.261-0.238s0.642-0.492,0.642-1.001c0-0.883-0.467-2.074-1.4-3.573h-7.829c-0.375,0-0.652,0.113-0.83,0.338
			c-0.178,0.227-0.325,0.584-0.44,1.073l-0.029,0.114c-0.039,0.164-0.131,0.246-0.277,0.246h-0.686l-0.058-0.057
			c0.039-1.501,0.058-2.637,0.058-3.406l-0.058-3.409l0.058-0.058h0.686c0.155,0,0.248,0.076,0.277,0.229l0.058,0.259
			c0.115,0.525,0.255,0.893,0.418,1.103s0.438,0.315,0.823,0.315h7.236c0.685,0,1.137-0.051,1.358-0.15
			c0.221-0.1,0.341-0.266,0.361-0.494l0.115-1.203l1.006-0.058c0.303,2.343,0.602,3.995,0.895,4.956
			c0,0.135-0.029,0.202-0.086,0.202l-1.872-0.058V349.193z"/>
		<path fill="#FFFFFF" d="M143.018,360.776l0.058,1.193c-1.321,0.279-2.239,0.658-2.755,1.139s-0.773,1.258-0.773,2.335
			c0,0.451,0.166,0.854,0.499,1.21c0.332,0.355,0.812,0.533,1.439,0.533c0.607,0,1.074-0.13,1.403-0.39
			c0.317-0.249,0.617-0.768,0.896-1.557c0.116-0.326,0.26-0.658,0.435-0.994c0.173-0.337,0.397-0.694,0.672-1.074
			c0.274-0.379,0.568-0.714,0.882-1.002s0.682-0.528,1.106-0.72c0.424-0.192,0.864-0.289,1.316-0.289
			c1.035,0,1.901,0.438,2.602,1.312c0.7,0.875,1.05,1.976,1.05,3.302c0,0.786-0.065,1.465-0.196,2.031
			c-0.131,0.567-0.343,1.148-0.633,1.743c-1.168,0.154-2.177,0.265-3.026,0.332l-0.145-1.154c0.994-0.289,1.699-0.665,2.119-1.131
			s0.629-1.045,0.629-1.735c0-0.442-0.142-0.828-0.427-1.16c-0.284-0.331-0.701-0.497-1.25-0.497c-0.542,0-0.981,0.125-1.323,0.375
			c-0.343,0.249-0.625,0.667-0.847,1.254c-0.25,0.691-0.512,1.294-0.788,1.81c-0.276,0.515-0.593,0.998-0.954,1.45
			c-0.362,0.453-0.777,0.797-1.244,1.032c-0.468,0.236-0.981,0.354-1.54,0.354c-0.673,0-1.266-0.156-1.775-0.469
			c-0.51-0.313-0.907-0.727-1.191-1.24c-0.284-0.515-0.496-1.062-0.635-1.638c-0.14-0.577-0.209-1.169-0.209-1.775
			c0-0.441,0.06-1.121,0.179-2.038c0.12-0.918,0.176-1.646,0.166-2.185C139.844,361.133,141.265,361.014,143.018,360.776z"/>
	</g>
	<path id="copyright-5-icon" fill="#FFFFFF" d="M122.03,213.415c0-7.323-5.937-13.26-13.26-13.26s-13.26,5.937-13.26,13.26
		s5.937,13.26,13.26,13.26S122.03,220.738,122.03,213.415z M106.842,209.919c0,1.063,0.777,1.545,1.096,1.776l-1.052,1.604
		c-1.186-0.832-1.965-1.849-1.965-3.381c0-2.123,1.727-3.85,3.85-3.85s3.85,1.727,3.85,3.85c0,1.521-0.768,2.541-1.966,3.381
		l-1.052-1.604c0.333-0.242,1.095-0.719,1.095-1.776c0-1.063-0.865-1.928-1.928-1.928
		C107.707,207.991,106.842,208.856,106.842,209.919z M106.842,217.577c0,1.063,0.777,1.545,1.096,1.776l-1.052,1.604
		c-1.186-0.832-1.965-1.849-1.965-3.381c0-2.123,1.727-3.85,3.85-3.85s3.85,1.727,3.85,3.85c0,1.521-0.768,2.541-1.966,3.381
		l-1.052-1.604c0.333-0.242,1.095-0.719,1.095-1.776c0-1.063-0.865-1.928-1.928-1.928
		C107.707,215.649,106.842,216.514,106.842,217.577z"/>
</g>
<path fill="#FFFFFF" d="M245.827,138.277l-25.255-14.581c1.777,3.964,2.803,9.034,2.803,14.581s-1.025,10.617-2.803,14.581
	L245.827,138.277z"/>
<path fill="#FFFFFF" d="M219.859,138.277c0-2.879-2.295-5.174-5.174-5.174c-1.667,0-3.138,0.771-4.081,1.979
	c0.543-0.177,1.11-0.268,1.681-0.271c3.029,0,5.486,2.456,5.486,5.486l0,0c-0.002,0.886-0.218,1.759-0.63,2.543
	C218.765,141.973,219.859,140.264,219.859,138.277L219.859,138.277z"/>
<path fill="#FFFFFF" d="M219.128,130.82c-0.501-2.472-1.235-4.674-2.129-6.461c-1.722-3.443-3.859-5.119-5.78-5.119
	s-4.058,1.676-5.78,5.119c-1.721,3.443-2.86,8.413-2.86,13.918s1.139,10.475,2.86,13.918c1.723,3.443,3.859,5.119,5.78,5.119
	s4.059-1.676,5.78-5.119c0.894-1.787,1.628-3.989,2.129-6.461c-1.303,0.781-2.822,1.232-4.443,1.232
	c-4.778,0-8.689-3.911-8.689-8.689s3.911-8.689,8.689-8.689C216.306,129.588,217.827,130.039,219.128,130.82z"/>
<path fill="#FFFFFF" d="M208.037,116.459l-19.321-11.154v65.945l19.321-11.154c-2.359-1.125-4.304-3.452-5.743-6.328
	c-2.041-4.083-3.23-9.511-3.23-15.49c0-5.98,1.189-11.407,3.23-15.49C203.732,119.911,205.677,117.584,208.037,116.459
	L208.037,116.459z"/>
<g>
	<path fill="#FFFFFF" d="M69.068,319.65c-0.176-0.064-0.324-0.1-0.444-0.105s-0.215,0.065-0.281,0.215
		c-0.068,0.149-0.102,0.395-0.102,0.734c0,0.146-0.014,0.246-0.039,0.299c-0.026,0.053-0.074,0.079-0.144,0.079h-0.357l-0.069-0.088
		c0.023-1.102,0.035-1.796,0.035-2.083l-0.035-1.538l0.053-0.141h0.374c0.081,0,0.132,0.027,0.152,0.083s0.03,0.148,0.03,0.277
		c0,0.205,0.088,0.422,0.264,0.65c0.177,0.229,0.435,0.413,0.775,0.554l9.648,4.017c0.193,0.076,0.336,0.188,0.426,0.338
		c0.092,0.149,0.137,0.289,0.137,0.418c0,0.398-0.188,0.668-0.563,0.809l-9.648,3.639c-0.358,0.135-0.621,0.273-0.788,0.417
		s-0.251,0.321-0.251,0.532v0.51c0,0.129-0.012,0.205-0.035,0.229s-0.072,0.035-0.147,0.035h-0.357l-0.069-0.088
		c0.023-1.148,0.035-1.951,0.035-2.408l-0.035-2.593l0.087-0.149h0.34c0.122,0,0.183,0.158,0.183,0.475v0.483
		c0,0.299,0.155,0.448,0.467,0.448c0.135,0,0.22-0.012,0.255-0.035l3.028-1.116v-3.313c0-0.188-0.014-0.313-0.04-0.378
		s-0.099-0.123-0.216-0.176L69.068,319.65z M72.834,321.54v2.698l4.065-1.494l-3.854-1.547c-0.088,0-0.145,0.019-0.172,0.057
		C72.848,321.292,72.834,321.388,72.834,321.54z"/>
	<path fill="#FFFFFF" d="M77.888,342.383l-8.868,0.776c-0.271,0.029-0.471,0.114-0.601,0.255s-0.194,0.387-0.194,0.738v0.255
		c0,0.094-0.055,0.141-0.165,0.141h-0.409l-0.035-0.035c0.023-1.193,0.035-2.003,0.035-2.43l-0.035-2.2l0.035-0.044h0.409
		c0.052,0,0.093,0.016,0.121,0.048c0.029,0.032,0.044,0.066,0.044,0.102v0.246c0,0.357,0.062,0.604,0.186,0.742
		c0.123,0.138,0.325,0.192,0.607,0.163l6.653-0.563l-7.901-3.22c-0.229-0.111-0.343-0.287-0.343-0.528
		c0-0.1,0.028-0.203,0.083-0.312c0.057-0.109,0.143-0.184,0.26-0.225l7.963-3.334l-6.715-0.378c-0.293-0.018-0.499,0.042-0.617,0.18
		c-0.117,0.138-0.176,0.392-0.176,0.761v0.246c0,0.1-0.055,0.149-0.165,0.149h-0.409l-0.035-0.035
		c0.023-0.879,0.035-1.528,0.035-1.947l-0.035-1.904l0.035-0.035h0.409c0.052,0,0.093,0.016,0.121,0.048
		c0.029,0.032,0.044,0.066,0.044,0.102v0.176c0,0.369,0.062,0.646,0.186,0.83c0.123,0.185,0.325,0.286,0.607,0.304l8.868,0.499
		c0.305,0.018,0.513-0.026,0.625-0.132c0.111-0.105,0.167-0.331,0.167-0.677v-0.246c0-0.047,0.015-0.086,0.044-0.118
		c0.028-0.032,0.063-0.049,0.104-0.049h0.428l0.018,0.035v3.045l-8.778,3.7l8.778,3.427v2.798l-0.018,0.035h-0.428
		c-0.1,0-0.148-0.05-0.148-0.149v-0.246c0-0.363-0.067-0.625-0.202-0.786S78.145,342.359,77.888,342.383z"/>
	<path fill="#FFFFFF" d="M69.016,357.895c-0.264,0-0.461,0.073-0.594,0.221c-0.131,0.147-0.197,0.396-0.197,0.749v0.251
		c0,0.093-0.055,0.139-0.165,0.139h-0.409l-0.035-0.035c0.023-1.187,0.035-1.995,0.035-2.426l-0.035-2.441l0.035-0.035h0.409
		c0.11,0,0.165,0.046,0.165,0.139v0.253c0,0.359,0.061,0.613,0.18,0.762c0.121,0.147,0.324,0.222,0.611,0.222h8.871
		c0.287,0,0.49-0.074,0.611-0.222c0.119-0.148,0.18-0.402,0.18-0.762v-0.253c0-0.034,0.015-0.066,0.043-0.096
		c0.029-0.028,0.064-0.043,0.105-0.043h0.426l0.035,0.035c-0.023,1.159-0.035,1.972-0.035,2.438l0.035,2.43l-0.035,0.035h-0.426
		c-0.1,0-0.148-0.046-0.148-0.139v-0.251c0-0.353-0.066-0.602-0.197-0.749c-0.133-0.147-0.33-0.221-0.594-0.221H69.016z"/>
	<path fill="#FFFFFF" d="M69.475,361.876c0,0.351-0.141,0.628-0.42,0.83c-0.281,0.201-0.785,0.303-1.516,0.303
		c-0.491,0-0.98-0.215-1.466-0.645c-0.485-0.429-0.784-0.969-0.896-1.619c0.123-0.188,0.311-0.229,0.563-0.123
		c0.111,0.416,0.323,0.771,0.637,1.067c0.313,0.296,0.574,0.444,0.785,0.444c0.286,0,0.453-0.206,0.5-0.616
		c0.047-0.253,0.136-0.444,0.268-0.576c0.131-0.133,0.334-0.198,0.607-0.198c0.264,0,0.484,0.105,0.666,0.316
		C69.384,361.27,69.475,361.542,69.475,361.876z"/>
	<path fill="#FFFFFF" d="M77.887,377.91c0.287,0,0.49-0.076,0.611-0.229c0.119-0.152,0.18-0.407,0.18-0.765v-0.246
		c0-0.047,0.015-0.087,0.044-0.119c0.028-0.032,0.063-0.048,0.104-0.048h0.428l0.018,0.038c-0.012,0.876-0.018,1.547-0.018,2.015
		l0.018,2.006l-0.018,0.035h-0.428c-0.1,0-0.148-0.047-0.148-0.141v-0.254c0-0.355-0.066-0.608-0.197-0.757
		c-0.133-0.149-0.33-0.224-0.594-0.224H72.96c-0.486,0-0.925-0.017-1.314-0.048c-0.39-0.032-0.779-0.094-1.169-0.185
		s-0.731-0.209-1.024-0.354c-0.293-0.146-0.568-0.34-0.826-0.579s-0.468-0.521-0.628-0.842c-0.162-0.321-0.289-0.705-0.383-1.152
		s-0.141-0.951-0.141-1.513c0-0.375,0.043-0.756,0.127-1.143c0.086-0.387,0.236-0.784,0.453-1.194s0.488-0.772,0.813-1.086
		s0.751-0.571,1.275-0.773s1.115-0.303,1.771-0.303h5.972c0.287,0,0.49-0.074,0.611-0.222c0.119-0.148,0.18-0.396,0.18-0.744v-0.244
		c0-0.046,0.015-0.086,0.044-0.117c0.028-0.032,0.063-0.048,0.104-0.048h0.428l0.018,0.035c-0.012,1.163-0.018,1.984-0.018,2.464
		l0.018,2.419l-0.018,0.035h-0.428c-0.1,0-0.148-0.05-0.148-0.148v-0.244c0-0.349-0.066-0.597-0.197-0.745
		c-0.133-0.147-0.33-0.222-0.594-0.222h-5.374c-0.404,0-0.719,0.006-0.944,0.018s-0.513,0.039-0.861,0.083
		c-0.348,0.044-0.654,0.127-0.917,0.25c-0.264,0.123-0.495,0.281-0.694,0.474c-0.591,0.614-0.887,1.226-0.887,1.834
		c0,0.368,0.05,0.7,0.149,0.995c0.1,0.296,0.229,0.546,0.391,0.75c0.161,0.205,0.361,0.383,0.602,0.535s0.484,0.272,0.733,0.36
		c0.249,0.087,0.529,0.157,0.843,0.21s0.602,0.088,0.865,0.105s0.551,0.026,0.86,0.026H77.887z"/>
	<path fill="#FFFFFF" d="M77.887,390.993c0.287,0,0.49-0.073,0.611-0.219c0.119-0.146,0.18-0.395,0.18-0.745v-0.254
		c0-0.104,0.049-0.157,0.148-0.157h0.428l0.018,0.031c-0.012,0.813-0.018,1.452-0.018,1.92l0.018,1.92l-0.018,0.035h-0.428
		c-0.1,0-0.148-0.047-0.148-0.14v-0.252c0-0.354-0.066-0.606-0.197-0.757c-0.133-0.151-0.33-0.227-0.594-0.227h-9.793
		c-0.445,0-0.668-0.229-0.668-0.688c0-0.322,0.164-0.604,0.492-0.843l8.192-6.297h-7.095c-0.264,0-0.461,0.075-0.594,0.227
		c-0.131,0.15-0.197,0.402-0.197,0.757v0.252c0,0.093-0.055,0.14-0.165,0.14h-0.409l-0.035-0.023
		c0.023-0.874,0.035-1.521,0.035-1.944l-0.035-2.028l0.035-0.035h0.409c0.052,0,0.093,0.016,0.121,0.048
		c0.029,0.031,0.044,0.065,0.044,0.101v0.243c0,0.749,0.264,1.124,0.791,1.124h8.713c0.158-0.116,0.273-0.203,0.347-0.262
		c0.073-0.058,0.167-0.144,0.281-0.257s0.196-0.229,0.247-0.349c0.049-0.119,0.074-0.245,0.074-0.379
		c0-0.14,0.016-0.234,0.048-0.283c0.032-0.05,0.083-0.074,0.153-0.074h0.34l0.053,0.053v2.603l-8.603,6.761H77.887z"/>
	<path fill="#FFFFFF" d="M69.068,396.607c-0.176-0.064-0.324-0.1-0.444-0.105s-0.215,0.065-0.281,0.215
		c-0.068,0.149-0.102,0.395-0.102,0.734c0,0.146-0.014,0.246-0.039,0.299c-0.026,0.053-0.074,0.079-0.144,0.079h-0.357l-0.069-0.088
		c0.023-1.102,0.035-1.796,0.035-2.083l-0.035-1.538l0.053-0.141h0.374c0.081,0,0.132,0.027,0.152,0.083s0.03,0.148,0.03,0.277
		c0,0.205,0.088,0.422,0.264,0.65c0.177,0.229,0.435,0.413,0.775,0.554l9.648,4.017c0.193,0.076,0.336,0.188,0.426,0.338
		c0.092,0.149,0.137,0.289,0.137,0.418c0,0.398-0.188,0.668-0.563,0.809l-9.648,3.639c-0.358,0.135-0.621,0.273-0.788,0.418
		c-0.167,0.143-0.251,0.32-0.251,0.531v0.51c0,0.129-0.012,0.205-0.035,0.229s-0.072,0.035-0.147,0.035h-0.357l-0.069-0.088
		c0.023-1.148,0.035-1.951,0.035-2.408l-0.035-2.593l0.087-0.149h0.34c0.122,0,0.183,0.158,0.183,0.475v0.483
		c0,0.299,0.155,0.448,0.467,0.448c0.135,0,0.22-0.012,0.255-0.035l3.028-1.116v-3.313c0-0.188-0.014-0.313-0.04-0.378
		s-0.099-0.123-0.216-0.176L69.068,396.607z M72.834,398.497v2.698l4.065-1.494l-3.854-1.547c-0.088,0-0.145,0.019-0.172,0.057
		C72.848,398.249,72.834,398.345,72.834,398.497z"/>
	<path fill="#FFFFFF" d="M71.834,416.178v-4.035c0-0.205,0.036-0.367,0.109-0.488c0.072-0.119,0.162-0.18,0.267-0.18
		c0.157,0,0.316,0.091,0.478,0.272c0.16,0.182,0.24,0.366,0.24,0.554v4.07c0,0.434-0.125,0.65-0.376,0.65
		c-0.129,0-0.28-0.092-0.455-0.277C71.922,416.561,71.834,416.371,71.834,416.178z"/>
	<path fill="#FFFFFF" d="M75.587,422.962c0.269,0,0.544,0.065,0.825,0.197c0.28,0.132,0.545,0.321,0.794,0.567
		c0.248,0.245,0.452,0.574,0.609,0.987c0.158,0.413,0.237,0.871,0.237,1.375c0,0.427-0.041,0.824-0.123,1.192
		s-0.217,0.722-0.404,1.061s-0.462,0.607-0.822,0.807c-0.36,0.198-0.793,0.298-1.297,0.298c-0.246,0-0.498-0.047-0.755-0.141
		c-0.258-0.094-0.491-0.204-0.698-0.329c-0.209-0.127-0.46-0.322-0.756-0.59c-0.296-0.266-0.54-0.499-0.733-0.698l-0.835-0.849
		c-1.294-1.321-2.23-1.981-2.811-1.981v2.669c0,0.326,0.097,0.569,0.29,0.73c0.193,0.16,0.583,0.322,1.168,0.485l-0.158,0.773
		c-0.698-0.17-1.521-0.302-2.472-0.396v-6.283c0.387,0,0.72,0.036,0.998,0.109s0.635,0.254,1.068,0.541s0.94,0.712,1.521,1.274
		l1.291,1.257c0.485,0.465,0.938,0.801,1.357,1.008c0.418,0.206,0.9,0.31,1.444,0.31c0.369,0,0.694-0.048,0.976-0.144
		c0.28-0.097,0.492-0.217,0.637-0.363c0.143-0.145,0.25-0.29,0.32-0.436s0.105-0.282,0.105-0.41c0-0.419-0.106-0.733-0.32-0.942
		c-0.213-0.21-0.442-0.314-0.688-0.314c-0.164,0-0.307,0.024-0.43,0.074c-0.123,0.044-0.242,0.066-0.359,0.066
		c-0.234,0-0.412-0.1-0.535-0.299c-0.122-0.199-0.184-0.419-0.184-0.659c0-0.258,0.071-0.479,0.215-0.667
		S75.382,422.962,75.587,422.962z"/>
	<path fill="#FFFFFF" d="M67.428,434.422c0-0.69,0.244-1.307,0.734-1.848c0.489-0.542,1.129-0.953,1.921-1.234
		c0.791-0.28,1.652-0.421,2.585-0.421c1.621,0,2.925,0.35,3.908,1.049c0.984,0.7,1.477,1.541,1.477,2.524
		c0,0.428-0.114,0.859-0.343,1.294c-0.229,0.434-0.516,0.798-0.86,1.091c-1.02,0.758-2.357,1.136-4.016,1.136
		c-0.768,0-1.467-0.078-2.096-0.233c-0.631-0.155-1.146-0.357-1.548-0.607c-0.401-0.249-0.739-0.535-1.011-0.857
		c-0.273-0.323-0.467-0.642-0.58-0.955C67.485,435.045,67.428,434.732,67.428,434.422z M77.303,434.492
		c0-0.135-0.034-0.264-0.102-0.387s-0.205-0.256-0.413-0.396s-0.482-0.261-0.822-0.36c-0.341-0.1-0.808-0.183-1.403-0.251
		c-0.595-0.066-1.285-0.101-2.071-0.101c-0.334,0-0.671,0.011-1.011,0.03c-0.341,0.021-0.719,0.063-1.135,0.128
		c-0.417,0.064-0.78,0.146-1.091,0.246c-0.312,0.1-0.573,0.239-0.787,0.418s-0.321,0.386-0.321,0.62c0,0.07,0.02,0.146,0.057,0.229
		c0.039,0.082,0.105,0.179,0.203,0.29c0.096,0.111,0.255,0.222,0.475,0.33s0.485,0.204,0.796,0.286c0.839,0.24,2,0.36,3.483,0.36
		c1.055,0,1.911-0.093,2.568-0.277c0.656-0.185,1.096-0.409,1.319-0.673C77.218,434.797,77.303,434.633,77.303,434.492z"/>
	<path fill="#FFFFFF" d="M78.063,444.034c0,0.159-0.097,0.238-0.29,0.238c-0.721-0.035-1.38-0.053-1.978-0.053h-6.75
		c-0.486,0-0.744,0.278-0.773,0.837l-0.035,0.749c-0.024,0.099-0.08,0.148-0.169,0.148h-0.417l-0.035-0.044
		c0.023-1.348,0.035-2.256,0.035-2.723l-0.035-2.792l0.035-0.035h0.417c0.101,0,0.157,0.04,0.169,0.122l0.035,0.907
		c0.029,0.563,0.287,0.846,0.773,0.846h6.117c0.275,0,0.479-0.012,0.611-0.035c0.131-0.023,0.212-0.052,0.241-0.083
		c0.029-0.033,0.044-0.084,0.044-0.154c0-0.24-0.19-0.75-0.571-1.529l0.721-0.325c0.521,1.125,1.043,2.184,1.564,3.177
		C77.966,443.655,78.063,443.905,78.063,444.034z"/>
	<path fill="#FFFFFF" d="M70.716,452.364c0.809,0,1.458-0.173,1.946-0.52c0.49-0.347,0.734-0.755,0.734-1.224
		c0-0.799-0.193-1.658-0.578-2.58l5.192,0.618c-0.076,0.916-0.114,1.647-0.114,2.193c0,0.868,0.062,1.843,0.185,2.923l-0.185,0.345
		l-1.176-0.273c-0.07-0.899-0.105-1.608-0.105-2.125c0-0.858,0.029-1.546,0.088-2.063c-0.117-0.012-0.933-0.112-2.446-0.301
		c0.072,0.4,0.108,0.963,0.108,1.688c0,0.524-0.092,1.001-0.276,1.432c-0.185,0.43-0.43,0.784-0.736,1.064
		c-0.308,0.279-0.657,0.494-1.048,0.645c-0.393,0.15-0.802,0.226-1.229,0.226c-1.025,0-1.891-0.357-2.598-1.071
		c-0.705-0.715-1.059-1.626-1.059-2.733c0-0.393,0.059-0.8,0.176-1.222s0.281-0.781,0.492-1.076
		c0.211-0.297,0.434-0.444,0.668-0.444c0.193,0,0.359,0.079,0.496,0.237c0.139,0.158,0.207,0.363,0.207,0.615
		c0,0.445-0.217,0.779-0.65,1.002c-0.434,0.252-0.65,0.524-0.65,0.817c0,0.492,0.23,0.92,0.689,1.283
		C69.309,452.183,69.931,452.364,70.716,452.364z"/>
	<g>
		<path fill="#878889" d="M48.252,338.37c-0.258,0-0.471,0.008-0.637,0.022c-0.168,0.015-0.313,0.051-0.439,0.109
			s-0.221,0.121-0.285,0.188c-0.064,0.066-0.119,0.176-0.163,0.328c-0.044,0.151-0.071,0.302-0.083,0.451
			c-0.012,0.148-0.023,0.36-0.035,0.635c-0.053,0.052-0.152,0.078-0.297,0.078s-0.244-0.022-0.297-0.068
			c0.023-1.197,0.035-2.031,0.035-2.501c0-0.51-0.012-1.35-0.035-2.521c0.053-0.043,0.152-0.065,0.297-0.065
			s0.244,0.026,0.297,0.079c0.012,0.272,0.023,0.483,0.035,0.632c0.012,0.147,0.039,0.297,0.083,0.448s0.099,0.26,0.163,0.327
			c0.064,0.066,0.159,0.129,0.285,0.188c0.126,0.058,0.271,0.096,0.439,0.113c0.166,0.017,0.379,0.025,0.637,0.025h7.639
			c0.293,0,0.543-0.092,0.751-0.276s0.312-0.435,0.312-0.751v-1.423c0-0.497-0.098-0.84-0.294-1.027s-0.654-0.372-1.374-0.554
			c0-0.261,0.029-0.464,0.088-0.609c0.774,0.174,1.691,0.304,2.752,0.391c0.018,0.199-0.005,0.387-0.068,0.563
			c-0.267,0-0.4,0.126-0.4,0.379v7.835c0,0.264,0.134,0.396,0.4,0.396c0.046,0.157,0.068,0.334,0.068,0.531
			c-0.815,0-1.733,0.078-2.752,0.234c-0.047-0.093-0.076-0.296-0.088-0.609c0.72-0.158,1.178-0.315,1.374-0.471
			s0.294-0.474,0.294-0.955v-1.117c0-0.317-0.105-0.563-0.316-0.739c-0.211-0.177-0.477-0.265-0.799-0.265H48.252z"/>
		<path fill="#878889" d="M49.743,342.238c0.773,0,1.476,0.146,2.105,0.439s1.139,0.732,1.525,1.318s0.58,1.271,0.58,2.057
			c0,0.539-0.08,1.025-0.241,1.459s-0.375,0.793-0.642,1.077c-0.266,0.284-0.578,0.521-0.935,0.712
			c-0.357,0.19-0.721,0.326-1.089,0.408c-0.369,0.082-0.75,0.123-1.142,0.123c-0.37,0-0.739-0.045-1.108-0.136
			c-0.37-0.091-0.732-0.237-1.087-0.439c-0.355-0.202-0.668-0.447-0.938-0.734c-0.271-0.287-0.487-0.647-0.651-1.081
			s-0.246-0.908-0.246-1.424c0-0.609,0.114-1.161,0.343-1.656s0.53-0.893,0.905-1.191s0.787-0.528,1.235-0.689
			S49.268,342.238,49.743,342.238z M53.36,345.859c0-0.48-0.162-0.882-0.488-1.204c-0.324-0.322-0.719-0.548-1.182-0.677
			s-0.973-0.193-1.529-0.193c-0.293,0-0.6,0.028-0.918,0.084c-0.32,0.056-0.646,0.149-0.98,0.281s-0.633,0.293-0.896,0.483
			s-0.479,0.434-0.646,0.729c-0.166,0.296-0.25,0.622-0.25,0.979c0,0.188,0.021,0.365,0.066,0.532
			c0.043,0.167,0.13,0.338,0.259,0.514s0.296,0.328,0.501,0.457s0.482,0.234,0.83,0.316c0.35,0.082,0.752,0.123,1.209,0.123
			c1.313,0,2.312-0.209,2.997-0.628S53.36,346.639,53.36,345.859z"/>
		<path fill="#878889" d="M51.762,352.371c0.486,0,0.801-0.07,0.941-0.211s0.234-0.46,0.281-0.958
			c0.047-0.035,0.133-0.054,0.258-0.057s0.211,0.004,0.258,0.021c0.143,1.148,0.312,1.968,0.506,2.46
			c0,0.157-0.039,0.236-0.115,0.236c-0.574-0.059-1.056-0.088-1.442-0.088c-0.064,0-0.1,0.018-0.105,0.053
			c0,0.029,0.041,0.064,0.123,0.105c0.411,0.24,0.762,0.536,1.052,0.888s0.436,0.721,0.436,1.107c0,0.346-0.092,0.612-0.277,0.8
			c-0.184,0.188-0.379,0.281-0.584,0.281c-0.229,0-0.436-0.086-0.623-0.259s-0.281-0.368-0.281-0.585
			c0-0.111,0.025-0.209,0.075-0.294c0.051-0.085,0.138-0.181,0.262-0.286l0.195-0.158c0.083-0.082,0.124-0.208,0.124-0.378
			c0-0.141-0.293-0.416-0.879-0.826c-0.429-0.287-0.83-0.431-1.205-0.431h-2.506c-0.258,0-0.47,0.006-0.634,0.018
			s-0.309,0.042-0.435,0.092s-0.221,0.101-0.281,0.153c-0.063,0.052-0.115,0.144-0.158,0.275c-0.045,0.131-0.074,0.258-0.088,0.38
			c-0.016,0.122-0.031,0.306-0.049,0.551c-0.053,0.052-0.152,0.078-0.297,0.078s-0.244-0.026-0.297-0.078
			c0.023-1.027,0.035-1.751,0.035-2.171c0-0.361-0.012-1.044-0.035-2.047c0.053-0.053,0.152-0.079,0.297-0.079
			s0.244,0.026,0.297,0.079c0.018,0.314,0.041,0.543,0.07,0.686s0.103,0.271,0.22,0.384c0.117,0.114,0.275,0.186,0.475,0.215
			c0.199,0.028,0.493,0.043,0.88,0.043H51.762z"/>
		<path fill="#878889" d="M51.762,359.095c0.486,0,0.801-0.07,0.941-0.211s0.234-0.46,0.281-0.958
			c0.047-0.035,0.133-0.054,0.258-0.057s0.211,0.004,0.258,0.021c0.143,1.148,0.312,1.968,0.506,2.46
			c0,0.157-0.039,0.236-0.115,0.236c-0.574-0.059-1.056-0.088-1.442-0.088c-0.064,0-0.1,0.018-0.105,0.053
			c0,0.029,0.041,0.064,0.123,0.105c0.411,0.24,0.762,0.536,1.052,0.888s0.436,0.721,0.436,1.107c0,0.346-0.092,0.612-0.277,0.8
			c-0.184,0.188-0.379,0.281-0.584,0.281c-0.229,0-0.436-0.086-0.623-0.259s-0.281-0.368-0.281-0.585
			c0-0.111,0.025-0.209,0.075-0.294c0.051-0.085,0.138-0.181,0.262-0.286l0.195-0.158c0.083-0.082,0.124-0.208,0.124-0.378
			c0-0.141-0.293-0.416-0.879-0.826c-0.429-0.287-0.83-0.431-1.205-0.431h-2.506c-0.258,0-0.47,0.006-0.634,0.018
			s-0.309,0.042-0.435,0.092s-0.221,0.101-0.281,0.153c-0.063,0.052-0.115,0.144-0.158,0.275c-0.045,0.131-0.074,0.258-0.088,0.38
			c-0.016,0.122-0.031,0.306-0.049,0.551c-0.053,0.052-0.152,0.078-0.297,0.078s-0.244-0.026-0.297-0.078
			c0.023-1.027,0.035-1.751,0.035-2.171c0-0.361-0.012-1.044-0.035-2.047c0.053-0.053,0.152-0.079,0.297-0.079
			s0.244,0.026,0.297,0.079c0.018,0.314,0.041,0.543,0.07,0.686s0.103,0.271,0.22,0.384c0.117,0.114,0.275,0.186,0.475,0.215
			c0.199,0.028,0.493,0.043,0.88,0.043H51.762z"/>
		<path fill="#878889" d="M47.718,370.791c-0.018,0.199-0.111,0.325-0.281,0.378c-1.041-0.807-1.562-1.827-1.562-3.061
			c0-1.177,0.384-2.093,1.151-2.748c0.644-0.562,1.531-0.843,2.662-0.843c0.528,0,1.023,0.075,1.487,0.225
			c0.463,0.148,0.859,0.347,1.188,0.592c0.328,0.246,0.612,0.525,0.854,0.839c0.24,0.313,0.418,0.635,0.532,0.965
			c0.114,0.331,0.172,0.654,0.172,0.971c0,2.022-1.046,3.034-3.137,3.034c-0.203,0-0.305-0.11-0.305-0.333l0.035-4.776
			c-1.015,0-1.839,0.189-2.473,0.569c-0.434,0.263-0.758,0.567-0.972,0.915c-0.214,0.347-0.321,0.695-0.321,1.046
			c0,0.503,0.072,0.913,0.216,1.232C47.11,370.114,47.36,370.446,47.718,370.791z M51.125,366.086l0.053,3.247
			c0,0.176,0.083,0.263,0.248,0.263c0.359,0,0.671-0.044,0.934-0.131c0.262-0.088,0.46-0.207,0.593-0.359
			c0.133-0.151,0.229-0.309,0.287-0.473c0.06-0.163,0.089-0.338,0.089-0.524c0-0.117-0.011-0.232-0.031-0.346
			c-0.021-0.114-0.074-0.263-0.159-0.446c-0.085-0.185-0.202-0.351-0.35-0.499c-0.147-0.149-0.365-0.292-0.654-0.43
			C51.845,366.251,51.508,366.15,51.125,366.086z"/>
		<path fill="#878889" d="M48.543,372.747c0.053,0.053,0.082,0.146,0.088,0.281s-0.018,0.229-0.07,0.281
			c-0.258,0.059-0.448,0.104-0.571,0.137s-0.305,0.103-0.545,0.212c-0.24,0.108-0.422,0.228-0.545,0.356
			c-0.287,0.253-0.431,0.679-0.431,1.277c0,0.388,0.108,0.74,0.325,1.058s0.527,0.476,0.932,0.476c0.393,0,0.709-0.123,0.949-0.37
			c0.234-0.24,0.507-0.731,0.817-1.472c0.305-0.729,0.63-1.241,0.975-1.539c0.346-0.298,0.838-0.447,1.476-0.447
			c0.562,0,1.038,0.255,1.427,0.764s0.584,1.104,0.584,1.787c0,0.276-0.021,0.563-0.062,0.857c-0.04,0.294-0.095,0.598-0.161,0.91
			c-0.066,0.312-0.106,0.508-0.118,0.588c-0.158-0.005-0.455-0.021-0.892-0.051c-0.436-0.028-0.773-0.043-1.014-0.043
			c-0.053-0.053-0.082-0.148-0.088-0.289c-0.006-0.14,0.018-0.236,0.07-0.289c0.287-0.047,0.539-0.125,0.756-0.234
			s0.381-0.225,0.492-0.346s0.201-0.259,0.268-0.412c0.068-0.154,0.11-0.282,0.128-0.386s0.026-0.205,0.026-0.306
			c0-0.335-0.104-0.631-0.313-0.886c-0.207-0.256-0.487-0.384-0.839-0.384c-0.141,0-0.27,0.017-0.387,0.049s-0.218,0.069-0.304,0.11
			c-0.084,0.041-0.17,0.112-0.254,0.216c-0.086,0.103-0.152,0.189-0.203,0.26c-0.049,0.07-0.111,0.187-0.184,0.349
			c-0.074,0.161-0.128,0.286-0.163,0.374l-0.176,0.449c-0.252,0.674-0.568,1.195-0.949,1.563s-0.861,0.552-1.441,0.552
			c-0.341,0-0.647-0.067-0.921-0.202c-0.272-0.136-0.491-0.308-0.656-0.516c-0.164-0.209-0.301-0.445-0.409-0.71
			c-0.108-0.264-0.184-0.516-0.225-0.753c-0.041-0.238-0.062-0.469-0.062-0.692c0-0.587,0.065-1.134,0.195-1.639
			c0.023-0.082,0.035-0.202,0.035-0.361c0-0.123-0.018-0.273-0.053-0.45C46.61,372.877,47.44,372.834,48.543,372.747z"/>
		<path fill="#878889" d="M50.063,388.154v-3.885c0-0.076,0.035-0.141,0.105-0.193s0.148-0.079,0.236-0.079
			c0.164,0,0.327,0.049,0.49,0.146c0.164,0.097,0.246,0.197,0.246,0.303v3.946c0,0.164-0.12,0.246-0.359,0.246
			c-0.123,0-0.273-0.053-0.451-0.158C50.152,388.374,50.063,388.266,50.063,388.154z"/>
		<path fill="#878889" d="M46.051,396.51c-0.012-0.972-0.023-1.75-0.035-2.336c0.053-0.053,0.152-0.079,0.297-0.079
			s0.244,0.026,0.297,0.079c0.012,0.24,0.023,0.426,0.035,0.558c0.012,0.131,0.039,0.265,0.083,0.398
			c0.044,0.135,0.099,0.234,0.163,0.299s0.159,0.123,0.285,0.176c0.126,0.052,0.271,0.087,0.439,0.104
			c0.166,0.018,0.379,0.026,0.637,0.026h7.209c0.38,0,0.673-0.019,0.878-0.057c0.204-0.038,0.364-0.126,0.479-0.264
			c0.114-0.137,0.185-0.289,0.21-0.456c0.027-0.166,0.049-0.428,0.066-0.785c0.053-0.053,0.151-0.079,0.297-0.079
			s0.244,0.026,0.297,0.079c-0.023,1.194-0.035,1.968-0.035,2.318c0,0.387,0.012,1.166,0.035,2.338
			c-0.053,0.052-0.151,0.077-0.297,0.077s-0.244-0.026-0.297-0.078c-0.018-0.357-0.039-0.619-0.066-0.786
			c-0.025-0.166-0.096-0.318-0.211-0.456c-0.113-0.138-0.273-0.225-0.479-0.263s-0.498-0.058-0.879-0.058h-7.813
			c-0.275,0-0.494,0.076-0.654,0.229c-0.162,0.152-0.242,0.357-0.242,0.615v2.037c0,0.328,0.059,0.616,0.176,0.865
			s0.293,0.458,0.527,0.628s0.478,0.307,0.729,0.412s0.56,0.209,0.923,0.309c0.035,0.212,0.006,0.41-0.088,0.594
			c-0.995-0.113-1.996-0.27-3.002-0.471c0.023-1.101,0.035-1.815,0.035-2.144V396.51z"/>
		<path fill="#878889" d="M48.251,406.592c-0.257,0-0.468,0.004-0.632,0.013s-0.311,0.035-0.439,0.079
			c-0.129,0.043-0.224,0.088-0.285,0.135s-0.114,0.127-0.158,0.24s-0.072,0.225-0.088,0.335c-0.014,0.11-0.027,0.271-0.039,0.479
			c-0.053,0.052-0.152,0.078-0.297,0.078s-0.244-0.026-0.297-0.078c0.023-1.025,0.035-1.687,0.035-1.983
			c0-0.339-0.012-1.011-0.035-2.016c0.053-0.053,0.152-0.079,0.297-0.079s0.244,0.026,0.297,0.079
			c0.018,0.216,0.033,0.376,0.048,0.481s0.044,0.218,0.088,0.337c0.044,0.12,0.097,0.201,0.158,0.245s0.155,0.089,0.28,0.136
			c0.126,0.047,0.271,0.075,0.435,0.083c0.163,0.01,0.374,0.014,0.632,0.014h3.5c0.269,0,0.473-0.014,0.613-0.039
			c0.141-0.027,0.256-0.088,0.347-0.186c0.091-0.096,0.15-0.211,0.18-0.342c0.029-0.133,0.056-0.333,0.079-0.603
			c0.059-0.018,0.145-0.032,0.258-0.044c0.112-0.012,0.198-0.009,0.258,0.009c0.141,1.136,0.308,1.956,0.5,2.459
			c0,0.157-0.035,0.236-0.104,0.236c-0.767-0.046-1.449-0.069-2.046-0.069H48.251z M56.829,404.951c0.211,0,0.406,0.103,0.588,0.307
			c0.181,0.205,0.271,0.416,0.271,0.632c0,0.233-0.098,0.435-0.294,0.604c-0.195,0.169-0.407,0.254-0.636,0.254
			c-0.198,0-0.393-0.095-0.582-0.285c-0.19-0.189-0.285-0.404-0.285-0.644c0-0.216,0.098-0.415,0.293-0.597
			C56.38,405.042,56.595,404.951,56.829,404.951z"/>
		<path fill="#878889" d="M54.016,409.3c-0.012,0.047-0.054,0.148-0.125,0.304c-0.072,0.155-0.107,0.347-0.107,0.575v3.656
			c0,0.152,0.01,0.321,0.031,0.506c0.02,0.185,0.041,0.34,0.061,0.466c0.021,0.126,0.031,0.197,0.031,0.215
			c0,0.146-0.041,0.22-0.122,0.22c-0.106,0-0.358-0.132-0.758-0.396l-6.37-4.324v2.399c0,0.258,0.026,0.477,0.079,0.655
			s0.148,0.335,0.286,0.47c0.139,0.135,0.281,0.246,0.428,0.334c0.147,0.082,0.361,0.188,0.645,0.316l0.528,0.237
			c0,0.223-0.041,0.401-0.123,0.536c-0.896-0.264-1.714-0.454-2.452-0.571v-5.616c0-0.274,0.072-0.411,0.218-0.411
			c0.076,0,0.196,0.053,0.361,0.157l6.546,4.427v-2.487c0-0.656-0.567-1.14-1.701-1.45c-0.042-0.21-0.021-0.408,0.062-0.594
			c1.066,0.169,1.858,0.259,2.374,0.271c0.024,0,0.049,0.012,0.072,0.035C54.004,409.253,54.016,409.276,54.016,409.3z"/>
		<path fill="#878889" d="M46.914,421.1v-0.035l-0.282-0.358c-0.311-0.396-0.514-0.718-0.611-0.966
			c-0.096-0.248-0.145-0.576-0.145-0.983c0-0.68,0.155-1.228,0.465-1.644c0.31-0.415,0.801-0.623,1.474-0.623
			c0.597,0,1.124,0.271,1.583,0.814c0.459,0.544,0.799,1.264,1.02,2.159l0.38,1.54c0.023,0.063,0.094,0.096,0.212,0.096
			c1.567,0,2.352-0.484,2.352-1.451c0-0.396-0.063-0.743-0.189-1.041c-0.126-0.297-0.314-0.445-0.566-0.445
			c-0.164,0-0.281,0.012-0.352,0.035c-0.07,0.035-0.18,0.053-0.326,0.053c-0.141,0-0.275-0.072-0.404-0.215
			c-0.129-0.144-0.193-0.335-0.193-0.574c0-0.418,0.211-0.627,0.632-0.627c0.316,0,0.63,0.143,0.939,0.43
			c0.311,0.286,0.563,0.66,0.76,1.122s0.294,0.932,0.294,1.411c0,0.286-0.021,0.549-0.066,0.789
			c-0.043,0.239-0.133,0.482-0.268,0.728s-0.311,0.453-0.526,0.622c-0.217,0.17-0.511,0.307-0.883,0.412s-0.804,0.158-1.296,0.158
			h-2.682c-0.171,0-0.306,0.002-0.405,0.004c-0.1,0.004-0.218,0.012-0.356,0.027c-0.137,0.014-0.244,0.036-0.32,0.065
			s-0.152,0.07-0.229,0.123s-0.133,0.122-0.168,0.206c-0.035,0.086-0.053,0.184-0.053,0.295s0.023,0.205,0.07,0.281
			s0.094,0.135,0.141,0.176s0.071,0.073,0.071,0.097c0,0.035-0.036,0.083-0.106,0.146c-0.07,0.061-0.135,0.092-0.193,0.092
			c-0.041,0-0.123-0.063-0.246-0.189c-0.123-0.125-0.248-0.314-0.373-0.566c-0.126-0.252-0.189-0.51-0.189-0.773
			c0-0.223,0.035-0.422,0.105-0.598s0.163-0.314,0.277-0.418c0.114-0.102,0.225-0.183,0.33-0.241S46.802,421.129,46.914,421.1z
			 M50.24,421.1l-0.376-1.416c-0.302-1.137-0.961-1.701-1.979-1.693c-0.321,0-0.615,0.112-0.881,0.336
			c-0.266,0.225-0.398,0.54-0.398,0.948c0,0.407,0.26,0.932,0.781,1.572c0.128,0.169,0.283,0.253,0.465,0.253H50.24z"/>
		<path fill="#878889" d="M45.875,427.948c0-0.346,0.046-0.653,0.137-0.923c0.092-0.27,0.214-0.49,0.367-0.663
			c0.152-0.173,0.337-0.314,0.552-0.426s0.438-0.19,0.667-0.237s0.475-0.07,0.733-0.07h3.448c0.567,0,0.94-0.074,1.119-0.223
			c0.178-0.148,0.285-0.443,0.32-0.887c0.053-0.052,0.151-0.078,0.297-0.078s0.244,0.026,0.297,0.079
			c-0.023,0.886-0.035,1.495-0.035,1.828c0,0.304,0.012,0.515,0.035,0.632c0,0.094-0.038,0.141-0.113,0.141
			c-0.879-0.047-1.498-0.07-1.855-0.07h-3.27c-0.376,0-0.695,0.049-0.959,0.145c-0.264,0.098-0.455,0.225-0.576,0.383
			c-0.119,0.158-0.203,0.312-0.25,0.458s-0.07,0.299-0.07,0.457c0,0.458,0.287,1.021,0.862,1.689
			c0.105,0.123,0.203,0.202,0.294,0.237s0.228,0.053,0.409,0.053h3.475c0.58,0,0.962-0.072,1.144-0.219
			c0.182-0.145,0.287-0.441,0.316-0.891c0.053-0.052,0.151-0.078,0.297-0.078s0.244,0.023,0.297,0.07
			c-0.023,0.891-0.035,1.503-0.035,1.837c0,0.304,0.012,0.515,0.035,0.632c0,0.094-0.038,0.141-0.113,0.141
			c-0.877-0.047-1.494-0.07-1.852-0.07h-3.447c-0.468,0-0.792,0.08-0.974,0.242c-0.181,0.16-0.292,0.517-0.333,1.067
			c-0.055,0.053-0.14,0.079-0.254,0.079s-0.196-0.026-0.246-0.079c-0.112-1.008-0.352-1.731-0.719-2.17
			c-0.041-0.123-0.041-0.237,0-0.342c0.426-0.135,0.779-0.202,1.063-0.202c0.042,0,0.069-0.012,0.082-0.035s0.013-0.052,0-0.084
			s-0.03-0.063-0.055-0.092C46.239,429.376,45.875,428.599,45.875,427.948z"/>
		<path fill="#878889" d="M51.762,435.297c0.486,0,0.801-0.07,0.941-0.211s0.234-0.46,0.281-0.958
			c0.047-0.035,0.133-0.054,0.258-0.058c0.125-0.002,0.211,0.005,0.258,0.022c0.143,1.147,0.312,1.968,0.506,2.459
			c0,0.158-0.039,0.237-0.115,0.237c-0.574-0.059-1.056-0.088-1.442-0.088c-0.064,0-0.1,0.018-0.105,0.053
			c0,0.029,0.041,0.064,0.123,0.105c0.411,0.24,0.762,0.536,1.052,0.888s0.436,0.721,0.436,1.107c0,0.346-0.092,0.612-0.277,0.8
			c-0.184,0.188-0.379,0.281-0.584,0.281c-0.229,0-0.436-0.086-0.623-0.26c-0.188-0.172-0.281-0.367-0.281-0.584
			c0-0.111,0.025-0.209,0.075-0.295c0.051-0.084,0.138-0.18,0.262-0.285l0.195-0.158c0.083-0.082,0.124-0.208,0.124-0.378
			c0-0.141-0.293-0.416-0.879-0.826c-0.429-0.287-0.83-0.431-1.205-0.431h-2.506c-0.258,0-0.47,0.006-0.634,0.018
			s-0.309,0.042-0.435,0.092c-0.126,0.049-0.221,0.101-0.281,0.152c-0.063,0.053-0.115,0.145-0.158,0.275
			c-0.045,0.131-0.074,0.258-0.088,0.381c-0.016,0.122-0.031,0.306-0.049,0.551c-0.053,0.052-0.152,0.078-0.297,0.078
			s-0.244-0.026-0.297-0.079c0.023-1.026,0.035-1.75,0.035-2.17c0-0.362-0.012-1.044-0.035-2.047
			c0.053-0.053,0.152-0.079,0.297-0.079s0.244,0.026,0.297,0.078c0.018,0.314,0.041,0.543,0.07,0.686s0.103,0.271,0.22,0.385
			s0.275,0.185,0.475,0.214s0.493,0.044,0.88,0.044H51.762z"/>
	</g>
</g>
</svg>
